<mxfile host="app.diagrams.net" agent="Mozilla/5.0 (X11; Linux x86_64) AppleWebKit/537.36 (KHTML, like Gecko) Chrome/127.0.0.0 Safari/537.36" version="24.7.7">
  <diagram name="Page-1" id="HxKZq0rRlBCdHT3AfpXq">
    <mxGraphModel dx="1664" dy="904" grid="0" gridSize="10" guides="1" tooltips="1" connect="1" arrows="1" fold="1" page="1" pageScale="1" pageWidth="1169" pageHeight="827" background="#000000" math="0" shadow="0">
      <root>
        <mxCell id="0" />
        <mxCell id="1" parent="0" />
        <mxCell id="0KK8S43uOGwu4CI4TOzJ-2" value="" style="ellipse;whiteSpace=wrap;html=1;" vertex="1" parent="1">
          <mxGeometry x="27" y="160" width="156" height="101" as="geometry" />
        </mxCell>
        <mxCell id="0KK8S43uOGwu4CI4TOzJ-14" style="edgeStyle=orthogonalEdgeStyle;rounded=0;orthogonalLoop=1;jettySize=auto;html=1;entryX=0.5;entryY=1;entryDx=0;entryDy=0;" edge="1" parent="1" source="0KK8S43uOGwu4CI4TOzJ-3" target="0KK8S43uOGwu4CI4TOzJ-4">
          <mxGeometry relative="1" as="geometry">
            <mxPoint x="473.6470588235293" y="554.5" as="targetPoint" />
          </mxGeometry>
        </mxCell>
        <mxCell id="0KK8S43uOGwu4CI4TOzJ-3" value="" style="ellipse;whiteSpace=wrap;html=1;" vertex="1" parent="1">
          <mxGeometry x="31" y="502" width="156" height="101" as="geometry" />
        </mxCell>
        <mxCell id="0KK8S43uOGwu4CI4TOzJ-7" style="edgeStyle=orthogonalEdgeStyle;rounded=0;orthogonalLoop=1;jettySize=auto;html=1;exitX=0;exitY=0;exitDx=0;exitDy=0;entryX=1;entryY=1;entryDx=0;entryDy=0;" edge="1" parent="1" source="0KK8S43uOGwu4CI4TOzJ-4" target="0KK8S43uOGwu4CI4TOzJ-2">
          <mxGeometry relative="1" as="geometry" />
        </mxCell>
        <mxCell id="0KK8S43uOGwu4CI4TOzJ-8" style="edgeStyle=orthogonalEdgeStyle;rounded=0;orthogonalLoop=1;jettySize=auto;html=1;exitX=0;exitY=0;exitDx=0;exitDy=0;entryX=1;entryY=1;entryDx=0;entryDy=0;" edge="1" parent="1" source="0KK8S43uOGwu4CI4TOzJ-4" target="0KK8S43uOGwu4CI4TOzJ-2">
          <mxGeometry relative="1" as="geometry" />
        </mxCell>
        <mxCell id="0KK8S43uOGwu4CI4TOzJ-9" style="edgeStyle=orthogonalEdgeStyle;rounded=0;orthogonalLoop=1;jettySize=auto;html=1;exitX=0;exitY=0;exitDx=0;exitDy=0;labelBackgroundColor=#0e0b0b;labelBorderColor=none;" edge="1" parent="1" source="0KK8S43uOGwu4CI4TOzJ-4" target="0KK8S43uOGwu4CI4TOzJ-2">
          <mxGeometry relative="1" as="geometry" />
        </mxCell>
        <mxCell id="0KK8S43uOGwu4CI4TOzJ-11" style="edgeStyle=orthogonalEdgeStyle;rounded=0;orthogonalLoop=1;jettySize=auto;html=1;entryX=1;entryY=0.5;entryDx=0;entryDy=0;" edge="1" parent="1" source="0KK8S43uOGwu4CI4TOzJ-4" target="0KK8S43uOGwu4CI4TOzJ-3">
          <mxGeometry relative="1" as="geometry" />
        </mxCell>
        <mxCell id="0KK8S43uOGwu4CI4TOzJ-12" style="edgeStyle=orthogonalEdgeStyle;rounded=0;orthogonalLoop=1;jettySize=auto;html=1;exitX=0.5;exitY=1;exitDx=0;exitDy=0;entryX=1;entryY=0.5;entryDx=0;entryDy=0;" edge="1" parent="1" source="0KK8S43uOGwu4CI4TOzJ-4" target="0KK8S43uOGwu4CI4TOzJ-3">
          <mxGeometry relative="1" as="geometry">
            <mxPoint x="383.0588235294117" y="568.9411764705883" as="targetPoint" />
          </mxGeometry>
        </mxCell>
        <mxCell id="0KK8S43uOGwu4CI4TOzJ-13" style="edgeStyle=orthogonalEdgeStyle;rounded=0;orthogonalLoop=1;jettySize=auto;html=1;" edge="1" parent="1" source="0KK8S43uOGwu4CI4TOzJ-4">
          <mxGeometry relative="1" as="geometry">
            <mxPoint x="292.47058823529414" y="561.8823529411766" as="targetPoint" />
          </mxGeometry>
        </mxCell>
        <mxCell id="0KK8S43uOGwu4CI4TOzJ-15" style="edgeStyle=orthogonalEdgeStyle;rounded=0;orthogonalLoop=1;jettySize=auto;html=1;entryX=1;entryY=0.5;entryDx=0;entryDy=0;strokeWidth=2;" edge="1" parent="1" source="0KK8S43uOGwu4CI4TOzJ-4" target="0KK8S43uOGwu4CI4TOzJ-3">
          <mxGeometry relative="1" as="geometry">
            <Array as="points">
              <mxPoint x="441" y="554" />
            </Array>
          </mxGeometry>
        </mxCell>
        <mxCell id="0KK8S43uOGwu4CI4TOzJ-4" value="" style="rounded=0;whiteSpace=wrap;html=1;" vertex="1" parent="1">
          <mxGeometry x="200" y="345" width="207" height="97" as="geometry" />
        </mxCell>
        <mxCell id="0KK8S43uOGwu4CI4TOzJ-16" value="" style="rhombus;whiteSpace=wrap;html=1;" vertex="1" parent="1">
          <mxGeometry x="500" y="349" width="133" height="109" as="geometry" />
        </mxCell>
        <mxCell id="0KK8S43uOGwu4CI4TOzJ-17" value="" style="rounded=0;whiteSpace=wrap;html=1;" vertex="1" parent="1">
          <mxGeometry x="700" y="350" width="191" height="102" as="geometry" />
        </mxCell>
        <mxCell id="0KK8S43uOGwu4CI4TOzJ-19" value="" style="ellipse;whiteSpace=wrap;html=1;" vertex="1" parent="1">
          <mxGeometry x="942" y="502" width="156" height="101" as="geometry" />
        </mxCell>
        <mxCell id="0KK8S43uOGwu4CI4TOzJ-20" value="" style="ellipse;whiteSpace=wrap;html=1;" vertex="1" parent="1">
          <mxGeometry x="925" y="170" width="156" height="101" as="geometry" />
        </mxCell>
      </root>
    </mxGraphModel>
  </diagram>
</mxfile>
